<svg aria-hidden="true" style="position: absolute; width: 0; height: 0; overflow: hidden;" version="1.1" xmlns="http://www.w3.org/2000/svg" xmlns:xlink="http://www.w3.org/1999/xlink">
<defs>
<!-- /////////////////////////////////////////// -->
<symbol id="icon-groups-students" viewBox="0 0 512 512">
<title>test-1</title>
<g>
	<g>
		<path d="M180.291,433.482c-39.601-16.915-72.83-47.065-93.567-84.898c-1.99-3.631-6.545-4.963-10.183-2.972
			c-3.632,1.991-4.962,6.549-2.972,10.182c22.346,40.765,58.154,73.254,100.829,91.482c0.961,0.41,1.96,0.605,2.942,0.605
			c2.913,0,5.685-1.708,6.901-4.556C185.869,439.516,184.1,435.109,180.291,433.482z"/>
	</g>
</g>
<g>
	<g>
		<path d="M435.454,345.621c-3.634-1.992-8.191-0.661-10.182,2.971c-20.735,37.823-53.958,67.968-93.548,84.883
			c-3.81,1.627-5.578,6.035-3.95,9.844c1.217,2.848,3.987,4.555,6.9,4.555c0.982,0,1.982-0.195,2.942-0.605
			c42.665-18.229,78.466-50.712,100.808-91.466C440.415,352.171,439.085,347.612,435.454,345.621z"/>
	</g>
</g>
<g>
	<g>
		<path d="M433.616,147.887c-25.464-41.748-64.908-73.323-111.066-88.908c-3.926-1.324-8.181,0.782-9.505,4.707
			c-1.325,3.925,0.781,8.18,4.706,9.505c42.826,14.46,79.427,43.762,103.059,82.507c1.413,2.317,3.882,3.595,6.41,3.595
			c1.331,0,2.679-0.354,3.898-1.098C434.654,156.038,435.772,151.423,433.616,147.887z"/>
	</g>
</g>
<g>
	<g>
		<path d="M198.98,63.676c-1.325-3.924-5.58-6.031-9.504-4.707c-46.17,15.583-85.622,47.161-111.092,88.916
			c-2.156,3.536-1.038,8.151,2.498,10.308c1.22,0.744,2.567,1.098,3.898,1.098c2.528,0,4.997-1.279,6.41-3.595
			c23.637-38.752,60.245-68.057,103.082-82.515C198.197,71.856,200.304,67.601,198.98,63.676z"/>
	</g>
</g>
<g>
	<g>
		<path d="M298.588,100.57l-18.771-9.385c-0.177-0.088-0.286-0.265-0.286-0.462v-11.36c9.72-7.216,16.032-18.775,16.032-31.783
			V31.548C295.564,14.153,281.411,0,264.017,0h-16.032c-17.396,0-31.549,14.153-31.549,31.548V47.58
			c0,13.008,6.312,24.567,16.032,31.783v11.36c0,0.197-0.109,0.374-0.286,0.462l-18.77,9.385
			c-8.024,4.011-13.009,12.077-13.009,21.048v22.156c0,4.142,3.357,7.5,7.5,7.5s7.5-3.358,7.5-7.5v-22.156
			c0-3.253,1.807-6.177,4.717-7.631l13.023-6.511l11.885,11.885c2.931,2.931,6.827,4.545,10.972,4.545
			c4.145,0,8.041-1.614,10.972-4.544l11.886-11.886l13.023,6.512c2.909,1.454,4.716,4.379,4.716,7.631v22.156
			c0,4.142,3.357,7.5,7.5,7.5s7.5-3.358,7.5-7.5v-22.156C311.596,112.647,306.611,104.582,298.588,100.57z M256.363,108.754
			c-0.037,0.038-0.15,0.151-0.364,0.151c-0.214,0-0.327-0.113-0.364-0.151l-10.252-10.252c1.339-2.313,2.084-4.977,2.084-7.779
			v-4.515c2.75,0.607,5.603,0.937,8.532,0.937c2.929,0,5.782-0.33,8.532-0.937v4.515c0,2.802,0.745,5.466,2.084,7.779
			L256.363,108.754z M256.001,72.145c-13.544,0-24.564-11.02-24.564-24.565V31.548h-0.001c0-9.125,7.424-16.548,16.549-16.548
			h16.032c9.124,0,16.548,7.424,16.548,16.548V47.58C280.564,61.125,269.545,72.145,256.001,72.145z"/>
	</g>
</g>
<g>
	<g>
		<path d="M298.588,461.296l-18.771-9.385c-0.177-0.088-0.286-0.265-0.286-0.462v-11.36c9.72-7.216,16.032-18.775,16.032-31.783
			v-16.032c0-17.396-14.152-31.548-31.548-31.548h-16.032c-17.396,0-31.549,14.153-31.549,31.548v16.032
			c0,13.008,6.312,24.567,16.032,31.783v11.36c0,0.197-0.109,0.374-0.286,0.462l-18.77,9.385
			c-8.024,4.011-13.009,12.076-13.009,21.048V504.5c0,4.142,3.357,7.5,7.5,7.5s7.5-3.358,7.5-7.5v-22.156
			c0-3.253,1.807-6.177,4.717-7.631l13.023-6.511l11.885,11.885c2.931,2.931,6.827,4.545,10.972,4.545
			c4.145,0,8.041-1.614,10.972-4.545l11.886-11.885l13.023,6.511c2.909,1.454,4.716,4.378,4.716,7.631V504.5
			c0,4.142,3.357,7.5,7.5,7.5s7.5-3.358,7.5-7.5v-22.156C311.596,473.373,306.611,465.308,298.588,461.296z M256.363,469.48
			c-0.037,0.038-0.15,0.151-0.364,0.151c-0.214,0-0.327-0.113-0.364-0.151l-10.252-10.252c1.339-2.313,2.084-4.977,2.084-7.779
			v-4.515c2.75,0.607,5.603,0.937,8.532,0.937c2.929,0,5.782-0.33,8.532-0.937v4.515c0,2.802,0.745,5.466,2.084,7.779
			L256.363,469.48z M256.001,432.87c-13.544,0-24.564-11.02-24.564-24.564v-16.032h-0.001c0-9.125,7.424-16.548,16.549-16.548
			h16.032c9.124,0,16.548,7.424,16.548,16.548v16.032C280.564,421.851,269.545,432.87,256.001,432.87z"/>
	</g>
</g>
<g>
	<g>
		<path d="M106.201,276.925l-18.771-9.385c-0.176-0.088-0.285-0.265-0.285-0.461v-11.36c9.72-7.216,16.032-18.775,16.032-31.783
			v-16.032c0-17.396-14.152-31.549-31.549-31.549H55.596c-17.396,0-31.548,14.153-31.548,31.549v16.032
			c0,13.008,6.312,24.567,16.032,31.783v11.36c0,0.197-0.109,0.373-0.286,0.461l-18.771,9.385
			c-8.024,4.012-13.008,12.077-13.008,21.048v22.156c0,4.142,3.357,7.5,7.5,7.5s7.5-3.358,7.5-7.5v-22.156
			c0-3.252,1.808-6.177,4.718-7.631l13.022-6.511l11.886,11.885c3.024,3.025,6.998,4.537,10.971,4.537
			c3.974,0,7.947-1.512,10.973-4.537L86.47,283.83l13.023,6.511c2.909,1.455,4.717,4.379,4.717,7.632v22.156
			c0,4.142,3.357,7.5,7.5,7.5s7.5-3.358,7.5-7.5v-22.156C119.209,289.003,114.225,280.938,106.201,276.925z M63.978,285.108
			c-0.202,0.202-0.528,0.203-0.73,0.001l-10.251-10.251c1.339-2.314,2.084-4.977,2.084-7.78v-4.515
			c2.75,0.607,5.603,0.937,8.532,0.937c2.929,0,5.782-0.33,8.532-0.937v4.515c0,2.802,0.745,5.466,2.084,7.779L63.978,285.108z
			 M63.613,248.499c-13.544,0-24.564-11.02-24.564-24.564v-16.032h-0.001c0-9.125,7.424-16.549,16.548-16.549h16.032
			c9.125,0,16.549,7.424,16.549,16.549v16.032C88.177,237.48,77.157,248.499,63.613,248.499z"/>
	</g>
</g>
<g>
	<g>
		<path d="M490.975,276.925l-18.771-9.385c-0.177-0.088-0.286-0.265-0.286-0.461v-11.36c9.72-7.216,16.032-18.775,16.032-31.783
			v-16.032c0-17.396-14.152-31.549-31.548-31.549h-16.032c-17.396,0-31.549,14.153-31.549,31.549v16.032
			c0,13.008,6.312,24.567,16.032,31.783v11.36c0,0.197-0.109,0.374-0.285,0.461l-18.771,9.386
			c-8.023,4.012-13.008,12.077-13.008,21.048v22.156c0,4.142,3.357,7.5,7.5,7.5s7.5-3.358,7.5-7.5v-22.156
			c0-3.252,1.808-6.177,4.717-7.631l13.023-6.511l11.886,11.885c3.024,3.025,6.998,4.537,10.971,4.537
			c3.974,0,7.947-1.512,10.973-4.537l11.885-11.885l13.022,6.511c2.91,1.455,4.718,4.379,4.718,7.631v22.156
			c0,4.142,3.357,7.5,7.5,7.5s7.5-3.358,7.5-7.5v-22.156C503.983,289.002,498.999,280.937,490.975,276.925z M448.752,285.109
			c-0.201,0.201-0.527,0.202-0.73,0l-10.252-10.252c1.339-2.313,2.084-4.977,2.084-7.779v-4.515c2.75,0.607,5.603,0.937,8.532,0.937
			s5.782-0.33,8.532-0.937v4.515c0,2.802,0.746,5.466,2.084,7.78L448.752,285.109z M448.387,248.499
			c-13.544,0-24.564-11.02-24.564-24.564v-16.032h-0.001c0-9.125,7.424-16.549,16.549-16.549h16.032
			c9.124,0,16.548,7.424,16.548,16.549v16.032C472.951,237.48,461.931,248.499,448.387,248.499z"/>
	</g>
</g>
</symbol>
<!-- /////////////////////////////////////////// -->
<symbol id="icon-group" viewBox="0 0 505.4 505.4">
<title>test</title>
<g>
	<g>
		<path d="M437.1,233.45c14.8-10.4,24.6-27.7,24.6-47.2c0-31.9-25.8-57.7-57.7-57.7c-31.9,0-57.7,25.8-57.7,57.7
			c0,19.5,9.7,36.8,24.6,47.2c-12.7,4.4-24.3,11.2-34.1,20c-13.5-11.5-29.4-20.3-46.8-25.5c21.1-12.8,35.3-36.1,35.3-62.6
			c0-40.4-32.7-73.1-73.1-73.1c-40.4,0-73.1,32.8-73.1,73.1c0,26.5,14.1,49.8,35.3,62.6c-17.2,5.2-32.9,13.9-46.3,25.2
			c-9.8-8.6-21.2-15.3-33.7-19.6c14.8-10.4,24.6-27.7,24.6-47.2c0-31.9-25.8-57.7-57.7-57.7s-57.7,25.8-57.7,57.7
			c0,19.5,9.7,36.8,24.6,47.2C28.5,247.25,0,284.95,0,329.25v6.6c0,0.2,0.2,0.4,0.4,0.4h122.3c-0.7,5.5-1.1,11.2-1.1,16.9v6.8
			c0,29.4,23.8,53.2,53.2,53.2h155c29.4,0,53.2-23.8,53.2-53.2v-6.8c0-5.7-0.4-11.4-1.1-16.9H505c0.2,0,0.4-0.2,0.4-0.4v-6.6
			C505.2,284.85,476.8,247.15,437.1,233.45z M362.3,186.15c0-23,18.7-41.7,41.7-41.7s41.7,18.7,41.7,41.7
			c0,22.7-18.3,41.2-40.9,41.7c-0.3,0-0.5,0-0.8,0s-0.5,0-0.8,0C380.5,227.45,362.3,208.95,362.3,186.15z M194.9,165.35
			c0-31.5,25.6-57.1,57.1-57.1s57.1,25.6,57.1,57.1c0,30.4-23.9,55.3-53.8,57c-1.1,0-2.2,0-3.3,0c-1.1,0-2.2,0-3.3,0
			C218.8,220.65,194.9,195.75,194.9,165.35z M59.3,186.15c0-23,18.7-41.7,41.7-41.7s41.7,18.7,41.7,41.7c0,22.7-18.3,41.2-40.9,41.7
			c-0.3,0-0.5,0-0.8,0s-0.5,0-0.8,0C77.6,227.45,59.3,208.95,59.3,186.15z M125.5,320.15H16.2c4.5-42.6,40.5-76,84.2-76.3
			c0.2,0,0.4,0,0.6,0s0.4,0,0.6,0c20.8,0.1,39.8,7.8,54.5,20.3C141.7,279.75,131,298.95,125.5,320.15z M366.8,359.95
			c0,20.5-16.7,37.2-37.2,37.2h-155c-20.5,0-37.2-16.7-37.2-37.2v-6.8c0-62.1,49.6-112.9,111.3-114.7c1.1,0.1,2.3,0.1,3.4,0.1
			s2.3,0,3.4-0.1c61.7,1.8,111.3,52.6,111.3,114.7V359.95z M378.7,320.15c-5.5-21.1-16-40-30.3-55.6c14.8-12.8,34-20.5,55-20.7
			c0.2,0,0.4,0,0.6,0s0.4,0,0.6,0c43.7,0.3,79.7,33.7,84.2,76.3H378.7z"/>
	</g>
</g>
</symbol>
<!-- /////////////////////////////////////////// -->
<symbol id="icon-alchemic" viewBox="0 0 512 512">
<title>test</title>
<g>
	<g>
		<path d="M296,232c-5.52,0-10,4.48-10,10s4.48,10,10,10c5.52,0,10-4.48,10-10S301.52,232,296,232z"/>
	</g>
</g>
<g>
	<g>
		<path d="M256,172c-5.52,0-10,4.48-10,10s4.48,10,10,10c5.52,0,10-4.48,10-10S261.52,172,256,172z"/>
	</g>
</g>
<g>
	<g>
		<path d="M136,432c-5.52,0-10,4.48-10,10c0,5.52,4.48,10,10,10s10-4.48,10-10C146,436.48,141.52,432,136,432z"/>
	</g>
</g>
<g>
	<g>
		<path d="M454.416,407.678L326,179.381V58.286c11.641-4.127,20-15.248,20-28.286c0-16.542-13.458-30-30-30H196
			c-16.542,0-30,13.458-30,30c0,13.038,8.359,24.159,20,28.286v121.095L57.584,407.678c-12.328,21.916-12.109,47.959,0.584,69.663
			C70.86,499.043,93.448,512,118.59,512h274.82c25.142,0,47.729-12.957,60.422-34.659
			C466.525,455.637,466.744,429.594,454.416,407.678z M204.716,186.902c0.842-1.496,1.284-3.185,1.284-4.902V60h10
			c5.522,0,10-4.478,10-10s-4.478-10-10-10h-20c-5.514,0-10-4.486-10-10s4.486-10,10-10h120c5.514,0,10,4.486,10,10s-4.486,10-10,10
			h-20c-5.522,0-10,4.478-10,10s4.478,10,10,10h10v122c0,1.718,0.442,3.405,1.284,4.902l58.941,104.787
			c-35.995-2.915-71.865,4.365-104.821,21.43c-42.366,21.924-89.529,25.784-134,11.227L204.716,186.902z M436.567,467.244
			C427.502,482.745,411.368,492,393.41,492H118.59c-17.958,0-34.092-9.255-43.157-24.756c-9.067-15.503-9.224-34.106-0.417-49.762
			l42.408-75.392c20.576,7.185,41.84,10.812,63.437,10.812c3.197,0,6.402-0.079,9.613-0.238
			c27.905-1.382,54.862-8.711,80.124-21.784c33.792-17.496,70.959-23.536,107.783-17.581l58.604,104.183
			C445.791,433.138,445.635,451.741,436.567,467.244z"/>
	</g>
</g>
<g>
	<g>
		<path d="M216,232c-16.542,0-30,13.458-30,30s13.458,30,30,30s30-13.458,30-30S232.542,232,216,232z M216,272
			c-5.514,0-10-4.486-10-10c0-5.514,4.486-10,10-10c5.514,0,10,4.486,10,10C226,267.514,221.514,272,216,272z"/>
	</g>
</g>
<g>
	<g>
		<path d="M376,432H176c-5.522,0-10,4.478-10,10c0,5.522,4.478,10,10,10h200c5.522,0,10-4.478,10-10
			C386,436.478,381.522,432,376,432z"/>
	</g>
</g>
</symbol>
<!-- /////////////////////////////////////////// -->
<symbol id="icon-todos" viewBox="0 0 512.001 512.001">
<title>test</title>
<g>
	<g>
		<path d="M400.003,152H256.001c-5.523,0-10,4.477-10,10s4.477,10,10,10h144.002c5.523,0,10-4.477,10-10S405.526,152,400.003,152z"
			/>
	</g>
</g>
<g>
	<g>
		<path d="M365.011,202.931c-1.86-1.86-4.44-2.93-7.07-2.93s-5.21,1.07-7.07,2.93c-1.86,1.86-2.93,4.44-2.93,7.07
			s1.07,5.21,2.93,7.07s4.44,2.93,7.07,2.93s5.21-1.07,7.07-2.93c1.86-1.86,2.93-4.44,2.93-7.07S366.871,204.791,365.011,202.931z"
			/>
	</g>
</g>
<g>
	<g>
		<path d="M263.061,45.931c-1.86-1.86-4.44-2.93-7.07-2.93s-5.21,1.07-7.07,2.93c-1.86,1.86-2.93,4.44-2.93,7.07
			s1.07,5.21,2.93,7.07c1.86,1.86,4.44,2.93,7.07,2.93s5.21-1.07,7.07-2.93c1.86-1.86,2.93-4.44,2.93-7.07
			S264.921,47.791,263.061,45.931z"/>
	</g>
</g>
<g>
	<g>
		<path d="M315.878,200h-59.877c-5.523,0-10,4.477-10,10s4.477,10,10,10h59.877c5.523,0,10-4.477,10-10S321.401,200,315.878,200z"/>
	</g>
</g>
<g>
	<g>
		<path d="M400.003,260H256.001c-5.523,0-10,4.477-10,10s4.477,10,10,10h144.002c5.523,0,10-4.477,10-10S405.526,260,400.003,260z"
			/>
	</g>
</g>
<g>
	<g>
		<path d="M365.011,310.931c-1.86-1.86-4.44-2.93-7.07-2.93s-5.21,1.07-7.07,2.93c-1.86,1.86-2.93,4.44-2.93,7.07
			s1.07,5.21,2.93,7.07s4.44,2.93,7.07,2.93s5.21-1.07,7.07-2.93c1.86-1.86,2.93-4.44,2.93-7.07S366.871,312.791,365.011,310.931z"
			/>
	</g>
</g>
<g>
	<g>
		<path d="M315.878,308h-59.877c-5.523,0-10,4.477-10,10s4.477,10,10,10h59.877c5.523,0,10-4.477,10-10S321.401,308,315.878,308z"/>
	</g>
</g>
<g>
	<g>
		<path d="M400.003,368H256.001c-5.523,0-10,4.477-10,10s4.477,10,10,10h144.002c5.523,0,10-4.477,10-10S405.526,368,400.003,368z"
			/>
	</g>
</g>
<g>
	<g>
		<path d="M365.011,418.931c-1.86-1.86-4.44-2.93-7.07-2.93s-5.21,1.07-7.07,2.93c-1.86,1.86-2.93,4.44-2.93,7.07
			s1.07,5.21,2.93,7.07s4.44,2.93,7.07,2.93s5.21-1.07,7.07-2.93c1.86-1.86,2.93-4.44,2.93-7.07S366.871,420.791,365.011,418.931z"
			/>
	</g>
</g>
<g>
	<g>
		<path d="M315.878,416h-59.877c-5.523,0-10,4.477-10,10s4.477,10,10,10h59.877c5.523,0,10-4.477,10-10S321.401,416,315.878,416z"/>
	</g>
</g>
<g>
	<g>
		<path d="M419.243,39.001h-76.379C331.823,28.48,316.898,22,300.479,22h-8.76C285.022,8.742,271.263,0,256,0
			s-29.021,8.742-35.719,22H211.5c-16.419,0-31.343,6.48-42.384,17.001H92.759c-26.885,0-48.758,21.873-48.758,48.758v375.484
			c0,26.885,21.873,48.758,48.758,48.758h326.483c26.885,0,48.758-21.873,48.758-48.758V87.759
			C468.001,60.874,446.128,39.001,419.243,39.001z M211.501,42h15.586c4.498,0,8.442-3.003,9.639-7.338
			C239.111,26.029,247.037,20,256.001,20c8.964,0,16.89,6.029,19.274,14.662c1.197,4.335,5.142,7.338,9.639,7.338h15.565
			c21.705,0,39.571,16.75,41.354,38.001H170.147C171.93,58.75,189.797,42,211.501,42z M448.001,463.244
			c0,15.857-12.901,28.758-28.758,28.758H92.759c-15.857,0-28.758-12.901-28.758-28.758V87.759
			c0-15.857,12.901-28.758,28.758-28.758h62.347c-3.276,7.512-5.105,15.794-5.105,24.5v6.5c0,5.523,4.477,10,10,10H351.98
			c5.523,0,10-4.477,10-10v-6.5c0-8.705-1.829-16.988-5.105-24.5h62.368c15.857,0,28.758,12.901,28.758,28.758V463.244z"/>
	</g>
</g>
<g>
	<g>
		<path d="M192.41,149.596c-3.905-3.905-10.237-3.905-14.142-0.001l-42.762,42.763l-13.173-13.174
			c-3.905-3.904-10.237-3.904-14.143,0c-3.905,3.905-3.905,10.237,0,14.143l20.245,20.245c1.953,1.953,4.512,2.929,7.071,2.929
			c2.559,0,5.119-0.976,7.071-2.929l49.833-49.833C196.315,159.834,196.315,153.502,192.41,149.596z"/>
	</g>
</g>
<g>
	<g>
		<path d="M168.001,368h-48c-5.523,0-10,4.477-10,10v48c0,5.523,4.477,10,10,10h48c5.523,0,10-4.477,10-10v-48
			C178.001,372.477,173.524,368,168.001,368z M158.001,416h-28v-28h28V416z"/>
	</g>
</g>
<g>
	<g>
		<path d="M168.001,260h-48c-5.523,0-10,4.477-10,10v48c0,5.523,4.477,10,10,10h48c5.523,0,10-4.477,10-10v-48
			C178.001,264.477,173.524,260,168.001,260z M158.001,308h-28v-28h28V308z"/>
	</g>
</g>
</symbol>
<!-- /////////////////////////////////////////// -->
<symbol id="icon-finance" viewBox="0 0 512 512">
<title>test</title>
<g>
	<g>
		<path d="M437.02,74.98C388.668,26.628,324.38,0,256,0S123.332,26.628,74.98,74.98C26.629,123.332,0,187.62,0,256
			s26.629,132.668,74.98,181.02C123.332,485.372,187.62,512,256,512s132.668-26.628,181.02-74.98
			C485.371,388.668,512,324.38,512,256S485.371,123.332,437.02,74.98z M256,482C131.383,482,30,380.617,30,256S131.383,30,256,30
			s226,101.383,226,226S380.617,482,256,482z"/>
	</g>
</g>
<g>
	<g>
		<path d="M272.067,241h-32.134c-18.307,0-33.2-14.893-33.2-33.199c0-18.307,14.894-33.2,33.2-33.2H304.2c8.284,0,15-6.716,15-15
			s-6.716-15-15-15H271v-33.2c0-8.284-6.716-15-15-15s-15,6.716-15,15v33.2h-1.066c-34.849,0-63.2,28.352-63.2,63.2
			c0,34.848,28.352,63.199,63.2,63.199h32.134c18.306,0,33.199,14.894,33.199,33.2c0,18.306-14.893,33.2-33.199,33.2h-64.267
			c-8.284,0-15,6.716-15,15s6.716,15,15,15H241v33.201c0,8.284,6.716,15,15,15s15-6.716,15-15V367.4h1.067
			c34.848,0,63.199-28.352,63.199-63.2S306.915,241,272.067,241z"/>
	</g>
</g>
</symbol>
<!-- /////////////////////////////////////////// -->
<symbol id="icon-messaging" viewBox="0 -26 512 512">
<title>test</title>
<path d="m256 100c-5.519531 0-10 4.480469-10 10s4.480469 10 10 10 10-4.480469 10-10-4.480469-10-10-10zm0 0"/><path d="m90 280c5.519531 0 10-4.480469 10-10s-4.480469-10-10-10-10 4.480469-10 10 4.480469 10 10 10zm0 0"/><path d="m336 0c-90.027344 0-163.917969 62.070312-169.632812 140.253906-85.738282 4.300782-166.367188 66.125-166.367188 149.746094 0 34.945312 13.828125 68.804688 39 95.632812 4.980469 20.53125-1.066406 42.292969-16.070312 57.296876-2.859376 2.859374-3.714844 7.160156-2.167969 10.898437 1.546875 3.734375 5.191406 6.171875 9.238281 6.171875 28.519531 0 56.003906-11.183594 76.425781-30.890625 19.894531 6.78125 45.851563 10.890625 69.574219 10.890625 90.015625 0 163.898438-62.054688 169.628906-140.222656 20.9375-.929688 42.714844-4.796875 59.945313-10.667969 20.421875 19.707031 47.90625 30.890625 76.425781 30.890625 4.046875 0 7.691406-2.4375 9.238281-6.171875 1.546875-3.738281.691407-8.039063-2.167969-10.898437-15.003906-15.003907-21.050781-36.765626-16.070312-57.296876 25.171875-26.828124 39-60.6875 39-95.632812 0-86.886719-86.839844-150-176-150zm-160 420c-23.601562 0-50.496094-4.632812-68.511719-11.800781-3.859375-1.539063-8.269531-.527344-11.078125 2.539062-12.074218 13.199219-27.773437 22.402344-44.878906 26.632813 9.425781-18.058594 11.832031-39.347656 6.097656-59.519532-.453125-1.589843-1.292968-3.042968-2.445312-4.226562-22.6875-23.367188-35.183594-53.066406-35.183594-83.625 0-70.46875 71.4375-130 156-130 79.851562 0 150 55.527344 150 130 0 71.683594-67.289062 130-150 130zm280.816406-186.375c-1.152344 1.1875-1.992187 2.640625-2.445312 4.226562-5.734375 20.171876-3.328125 41.460938 6.097656 59.519532-17.105469-4.226563-32.804688-13.433594-44.878906-26.632813-2.808594-3.0625-7.21875-4.078125-11.078125-2.539062-15.613281 6.210937-37.886719 10.511719-58.914063 11.550781-2.921875-37.816406-21.785156-73.359375-54.035156-99.75h130.4375c5.523438 0 10-4.476562 10-10s-4.476562-10-10-10h-161.160156c-22.699219-11.554688-48.1875-18.292969-74.421875-19.707031 5.746093-67.164063 70.640625-120.292969 149.582031-120.292969 84.5625 0 156 59.53125 156 130 0 30.558594-12.496094 60.257812-35.183594 83.625zm0 0"/><path d="m256 260h-126c-5.523438 0-10 4.476562-10 10s4.476562 10 10 10h126c5.523438 0 10-4.476562 10-10s-4.476562-10-10-10zm0 0"/><path d="m256 320h-166c-5.523438 0-10 4.476562-10 10s4.476562 10 10 10h166c5.523438 0 10-4.476562 10-10s-4.476562-10-10-10zm0 0"/><path d="m422 100h-126c-5.523438 0-10 4.476562-10 10s4.476562 10 10 10h126c5.523438 0 10-4.476562 10-10s-4.476562-10-10-10zm0 0"/>
</symbol>
<!-- /////////////////////////////////////////// -->
<symbol id="icon-schedule" viewBox="0 0 512 512">
<title>test</title>
<path d="m482 292.25v-246.25c0-8.285156-6.714844-15-15-15h-76v-16c0-8.285156-6.714844-15-15-15s-15 6.714844-15 15v16h-60v-16c0-8.285156-6.714844-15-15-15s-15 6.714844-15 15v16h-60v-16c0-8.285156-6.714844-15-15-15s-15 6.714844-15 15v16h-60v-16c0-8.285156-6.714844-15-15-15s-15 6.714844-15 15v16h-76c-8.285156 0-15 6.714844-15 15v391c0 8.285156 6.714844 15 15 15h249.804688c24.25 36.152344 65.488281 60 112.195312 60 74.4375 0 135-60.5625 135-135 0-32.070312-11.25-61.5625-30-84.75zm-391-231.25v15c0 8.285156 6.714844 15 15 15s15-6.714844 15-15v-15h60v15c0 8.285156 6.714844 15 15 15s15-6.714844 15-15v-15h60v15c0 8.285156 6.714844 15 15 15s15-6.714844 15-15v-15h60v15c0 8.285156 6.714844 15 15 15s15-6.714844 15-15v-15h61v60h-422v-60zm-61 361v-271h422v113.804688c-21.464844-14.394532-47.269531-22.804688-75-22.804688-47.398438 0-89.164062 24.558594-113.257812 61.613281-2.027344-1.023437-4.3125-1.613281-6.742188-1.613281h-30c-8.285156 0-15 6.714844-15 15s6.714844 15 15 15h22.722656c-3.386718 9.554688-5.730468 19.601562-6.882812 30h-15.839844c-8.285156 0-15 6.714844-15 15s6.714844 15 15 15h15.839844c1.152344 10.398438 3.492187 20.445312 6.882812 30zm347 60c-57.898438 0-105-47.101562-105-105s47.101562-105 105-105 105 47.101562 105 105-47.101562 105-105 105zm0 0"/><path d="m437 362h-45v-45c0-8.285156-6.714844-15-15-15s-15 6.714844-15 15v60c0 8.285156 6.714844 15 15 15h60c8.285156 0 15-6.714844 15-15s-6.714844-15-15-15zm0 0"/><path d="m136 182h-30c-8.285156 0-15 6.714844-15 15s6.714844 15 15 15h30c8.285156 0 15-6.714844 15-15s-6.714844-15-15-15zm0 0"/><path d="m136 242h-30c-8.285156 0-15 6.714844-15 15s6.714844 15 15 15h30c8.285156 0 15-6.714844 15-15s-6.714844-15-15-15zm0 0"/><path d="m136 302h-30c-8.285156 0-15 6.714844-15 15s6.714844 15 15 15h30c8.285156 0 15-6.714844 15-15s-6.714844-15-15-15zm0 0"/><path d="m227 212h30c8.285156 0 15-6.714844 15-15s-6.714844-15-15-15h-30c-8.285156 0-15 6.714844-15 15s6.714844 15 15 15zm0 0"/><path d="m227 272h30c8.285156 0 15-6.714844 15-15s-6.714844-15-15-15h-30c-8.285156 0-15 6.714844-15 15s6.714844 15 15 15zm0 0"/><path d="m136 362h-30c-8.285156 0-15 6.714844-15 15s6.714844 15 15 15h30c8.285156 0 15-6.714844 15-15s-6.714844-15-15-15zm0 0"/><path d="m347 212h30c8.285156 0 15-6.714844 15-15s-6.714844-15-15-15h-30c-8.285156 0-15 6.714844-15 15s6.714844 15 15 15zm0 0"/>
</symbol>
<!-- /////////////////////////////////////////// -->
<symbol id="icon-quizzes" viewBox="0 0 464 464">
<title>test</title>
<path d="m440 0h-416c-13.253906 0-24 10.746094-24 24v416c0 13.253906 10.746094 24 24 24h416c13.253906 0 24-10.746094 24-24v-416c0-13.253906-10.746094-24-24-24zm8 24v200h-74.238281c-3.03125 0-5.800781 1.710938-7.15625 4.421875s-1.0625 5.953125.753906 8.378906c5.742187 7.894531 8.773437 17.4375 8.640625 27.199219 0 22.054688-14.351562 40-32 40s-32-17.945312-32-40c-.136719-9.761719 2.886719-19.300781 8.625-27.199219 1.816406-2.425781 2.109375-5.667969.753906-8.378906-1.355468-2.710937-4.125-4.421875-7.15625-4.421875h-74.222656v-60.617188c7.628906 3.070313 15.777344 4.636719 24 4.617188 30.878906 0 56-21.527344 56-48s-25.121094-48-56-48c-8.222656-.019531-16.371094 1.546875-24 4.617188v-60.617188h200c4.417969 0 8 3.582031 8 8zm-432 0c0-4.417969 3.582031-8 8-8h200v74.238281c0 3.03125 1.710938 5.800781 4.421875 7.15625s5.953125 1.0625 8.378906-.753906c7.898438-5.738281 17.4375-8.765625 27.199219-8.640625 22.054688 0 40 14.351562 40 32s-17.945312 32-40 32c-9.757812.132812-19.300781-2.894531-27.199219-8.625-2.425781-1.816406-5.667969-2.109375-8.378906-.753906-2.710937 1.355468-4.421875 4.125-4.421875 7.15625v74.222656h-60.617188c3.070313-7.628906 4.636719-15.777344 4.617188-24 0-30.871094-21.527344-56-48-56s-48 25.128906-48 56c-.019531 8.222656 1.546875 16.371094 4.617188 24h-60.617188zm0 416v-200h74.238281c3.03125 0 5.800781-1.710938 7.15625-4.421875s1.0625-5.953125-.753906-8.378906c-5.742187-7.894531-8.773437-17.4375-8.640625-27.199219 0-22.054688 14.351562-40 32-40s32 17.945312 32 40c.136719 9.761719-2.886719 19.300781-8.625 27.199219-1.816406 2.425781-2.109375 5.667969-.753906 8.378906 1.355468 2.710937 4.125 4.421875 7.15625 4.421875h74.222656v60.617188c-7.628906-3.070313-15.777344-4.636719-24-4.617188-30.878906 0-56 21.527344-56 48s25.121094 48 56 48c8.222656.019531 16.371094-1.546875 24-4.617188v60.617188h-200c-4.417969 0-8-3.582031-8-8zm432 0c0 4.417969-3.582031 8-8 8h-200v-74.238281c0-3.03125-1.710938-5.800781-4.421875-7.15625s-5.953125-1.0625-8.378906.753906c-7.898438 5.738281-17.4375 8.765625-27.199219 8.640625-22.054688 0-40-14.351562-40-32s17.945312-32 40-32c9.757812-.132812 19.300781 2.894531 27.199219 8.625 2.425781 1.816406 5.667969 2.109375 8.378906.753906 2.710937-1.355468 4.421875-4.125 4.421875-7.15625v-74.222656h60.617188c-3.070313 7.628906-4.636719 15.777344-4.617188 24 0 30.871094 21.527344 56 48 56s48-25.128906 48-56c.019531-8.222656-1.546875-16.371094-4.617188-24h60.617188zm0 0"/>
</symbol>
<!-- /////////////////////////////////////////// -->
<symbol id="icon-attendance" viewBox="0 0 512 512">
<title>test</title>
<path d="m256 512c-68.382812 0-132.667969-26.628906-181.019531-74.980469-48.351563-48.351562-74.980469-112.640625-74.980469-181.019531s26.628906-132.667969 74.980469-181.019531c48.351562-48.351563 112.636719-74.980469 181.019531-74.980469 68.378906 0 132.667969 26.628906 181.019531 74.980469 48.351563 48.351562 74.980469 112.640625 74.980469 181.019531s-26.628906 132.667969-74.980469 181.019531c-48.351562 48.351563-112.640625 74.980469-181.019531 74.980469zm0-482c-124.617188 0-226 101.382812-226 226s101.382812 226 226 226 226-101.382812 226-226-101.382812-226-226-226zm0 0" fill="#09426d"/><path d="m224.632812 342.53125c-3.835937 0-7.675781-1.464844-10.605468-4.394531l-80.332032-80.332031c-5.859374-5.855469-5.859374-15.355469 0-21.210938 5.855469-5.859375 15.355469-5.859375 21.210938 0l69.730469 69.726562 132.457031-132.460937c5.855469-5.855469 15.355469-5.855469 21.210938 0 5.859374 5.859375 5.859374 15.355469 0 21.214844l-143.066407 143.066406c-2.925781 2.925781-6.765625 4.390625-10.605469 4.390625zm0 0" fill="#91e1ff"/>
</symbol>
<!-- /////////////////////////////////////////// -->
<symbol id="icon-checked" viewBox="1 -16 511.999 511">
<title>test</title>
<path d="m67.15625 27.578125c-13.871094 0-25.15625 11.285156-25.15625 25.15625 0 13.867187 11.285156 25.152344 25.152344 25.152344 13.871094 0 25.15625-11.285157 25.15625-25.152344 0-13.871094-11.285156-25.15625-25.152344-25.15625zm0 35.308594c-5.601562 0-10.15625-4.554688-10.15625-10.152344 0-5.601563 4.554688-10.15625 10.152344-10.15625 5.601562 0 10.15625 4.554687 10.15625 10.15625 0 5.597656-4.554688 10.152344-10.152344 10.152344zm0 0"/><path d="m126.914062 27.578125c-13.867187 0-25.152343 11.285156-25.152343 25.15625 0 13.867187 11.285156 25.152344 25.152343 25.152344 13.871094 0 25.15625-11.285157 25.15625-25.152344 0-13.871094-11.285156-25.15625-25.15625-25.15625zm0 35.308594c-5.597656 0-10.152343-4.554688-10.152343-10.152344 0-5.601563 4.554687-10.15625 10.152343-10.15625 5.601563 0 10.15625 4.554687 10.15625 10.15625 0 5.597656-4.554687 10.152344-10.15625 10.152344zm0 0"/><path d="m186.675781 27.578125c-13.871093 0-25.15625 11.285156-25.15625 25.15625 0 13.867187 11.285157 25.152344 25.15625 25.152344 13.867188 0 25.152344-11.285157 25.152344-25.152344 0-13.871094-11.285156-25.15625-25.152344-25.15625zm0 35.308594c-5.601562 0-10.15625-4.554688-10.15625-10.152344 0-5.601563 4.554688-10.15625 10.15625-10.15625 5.597657 0 10.152344 4.554687 10.152344 10.15625 0 5.597656-4.554687 10.152344-10.152344 10.152344zm0 0"/><path d="m459.832031 52.734375c0-4.144531-3.355469-7.5-7.5-7.5h-182.664062c-4.144531 0-7.5 3.355469-7.5 7.5 0 4.140625 3.355469 7.5 7.5 7.5h182.667969c4.140624 0 7.496093-3.359375 7.496093-7.5zm0 0"/><path d="m480.683594.5h-449.367188c-17.292968 0-31.316406 14.074219-31.316406 31.316406v417.25c0 1.890625.167969 3.738282.488281 5.535156.046875.257813.097657.515626.148438.769532.078125.378906.164062.757812.257812 1.136718.058594.25.125.5.191407.75.066406.25.136718.496094.210937.742188 3.855469 12.929688 15.855469 22.382812 30.019531 22.382812h449.367188c17.265625 0 31.316406-14.046874 31.316406-31.316406v-417.25c0-17.246094-14.027344-31.316406-31.316406-31.316406zm-319.164063 464.882812h-130.203125c-7.449218 0-13.75-5.019531-15.695312-11.855468-.039063-.128906-.074219-.257813-.105469-.390625-.035156-.128907-.066406-.257813-.097656-.390625-.273438-1.183594-.417969-2.414063-.417969-3.679688v-344.101562h146.519531zm319.164063 0h-304.164063v-360.417968h170.480469c4.140625 0 7.5-3.359375 7.5-7.5 0-4.144532-3.359375-7.5-7.5-7.5h-332v-58.148438c0-8.976562 7.296875-16.316406 16.316406-16.316406h449.367188c8.957031 0 16.316406 7.28125 16.316406 16.316406v58.148438h-122c-4.140625 0-7.5 3.355468-7.5 7.5 0 4.140625 3.359375 7.5 7.5 7.5h122v344.101562c0 8.996094-7.320312 16.316406-16.316406 16.316406zm0 0"/><path d="m38.761719 146.941406h99c4.140625 0 7.5-3.359375 7.5-7.5s-3.359375-7.5-7.5-7.5h-99c-4.144531 0-7.5 3.359375-7.5 7.5s3.355469 7.5 7.5 7.5zm0 0"/><path d="m38.761719 193.859375h99c4.140625 0 7.5-3.359375 7.5-7.5 0-4.144531-3.359375-7.5-7.5-7.5h-99c-4.144531 0-7.5 3.355469-7.5 7.5 0 4.140625 3.355469 7.5 7.5 7.5zm0 0"/><path d="m38.761719 240.773438h99c4.140625 0 7.5-3.359376 7.5-7.5 0-4.140626-3.359375-7.5-7.5-7.5h-99c-4.144531 0-7.5 3.359374-7.5 7.5 0 4.140624 3.355469 7.5 7.5 7.5zm0 0"/><path d="m38.761719 287.6875h99c4.140625 0 7.5-3.355469 7.5-7.5 0-4.140625-3.359375-7.5-7.5-7.5h-99c-4.144531 0-7.5 3.359375-7.5 7.5 0 4.144531 3.355469 7.5 7.5 7.5zm0 0"/><path d="m207.921875 235.445312h104.15625c8.503906 0 15.421875-6.917968 15.421875-15.421874v-77.960938c0-8.503906-6.917969-15.421875-15.421875-15.421875h-104.15625c-8.503906 0-15.421875 6.917969-15.421875 15.421875v77.960938c0 8.503906 6.917969 15.421874 15.421875 15.421874zm-.421875-93.382812c0-.230469.1875-.421875.421875-.421875h104.15625c.230469 0 .421875.191406.421875.421875v77.960938c0 .230468-.1875.421874-.421875.421874h-104.15625c-.230469 0-.421875-.191406-.421875-.421874zm0 0"/><path d="m362.921875 235.445312h104.15625c8.503906 0 15.421875-6.917968 15.421875-15.421874v-77.960938c0-8.503906-6.917969-15.421875-15.421875-15.421875h-104.15625c-8.503906 0-15.421875 6.917969-15.421875 15.421875v77.960938c0 8.503906 6.917969 15.421874 15.421875 15.421874zm102.761719-93.804687c1 0 1.816406.816406 1.816406 1.816406v75.171875c0 1-.816406 1.816406-1.816406 1.816406h-101.367188c-1 0-1.816406-.816406-1.816406-1.816406v-75.171875c0-1 .816406-1.816406 1.816406-1.816406zm0 0"/><path d="m467.601562 390.210938h-259.679687c-8.503906 0-15.421875 6.917968-15.421875 15.421874v16.953126c0 8.503906 6.917969 15.421874 15.421875 15.421874h259.679687c8.503907 0 15.421876-6.917968 15.421876-15.421874v-16.953126c0-8.503906-6.917969-15.421874-15.421876-15.421874zm.421876 32.375c0 .230468-.1875.421874-.421876.421874h-259.679687c-.234375 0-.421875-.1875-.421875-.421874v-16.953126c0-.234374.1875-.421874.421875-.421874h259.679687c.230469 0 .421876.1875.421876.421874zm0 0"/><path d="m207.921875 369.429688h38.078125c4.140625 0 7.5-3.355469 7.5-7.5 0-4.140626-3.359375-7.5-7.5-7.5h-38.078125c-.230469 0-.421875-.1875-.421875-.421876v-86.15625c0-.230468.1875-.421874.421875-.421874h259.15625c.230469 0 .421875.191406.421875.421874v86.15625c0 .234376-.1875.421876-.421875.421876h-193.078125c-4.140625 0-7.5 3.359374-7.5 7.5 0 4.144531 3.359375 7.5 7.5 7.5h193.078125c8.503906 0 15.421875-6.917969 15.421875-15.421876v-86.15625c0-8.503906-6.917969-15.421874-15.421875-15.421874h-259.15625c-8.503906 0-15.421875 6.917968-15.421875 15.421874v86.15625c0 8.503907 6.917969 15.421876 15.421875 15.421876zm0 0"/>
</symbol>
<!-- /////////////////////////////////////////// -->
<symbol id="icon-profile" viewBox="0 0 512 512">
<title>test</title>
<path d="m512 256c0-141.488281-114.496094-256-256-256-141.488281 0-256 114.496094-256 256 0 140.234375 113.539062 256 256 256 141.875 0 256-115.121094 256-256zm-256-226c124.617188 0 226 101.382812 226 226 0 45.585938-13.558594 89.402344-38.703125 126.515625-100.96875-108.609375-273.441406-108.804687-374.59375 0-25.144531-37.113281-38.703125-80.929687-38.703125-126.515625 0-124.617188 101.382812-226 226-226zm-168.585938 376.5c89.773438-100.695312 247.421876-100.671875 337.167969 0-90.074219 100.773438-247.054687 100.804688-337.167969 0zm0 0"/><path d="m256 271c49.625 0 90-40.375 90-90v-30c0-49.625-40.375-90-90-90s-90 40.375-90 90v30c0 49.625 40.375 90 90 90zm-60-120c0-33.085938 26.914062-60 60-60s60 26.914062 60 60v30c0 33.085938-26.914062 60-60 60s-60-26.914062-60-60zm0 0"/>
</symbol>
<!-- /////////////////////////////////////////// -->
<symbol id="icon-grade-book" viewBox="0 0 61 60">
<title>test</title>
<path id="Shape" d="m32.293 19.707c.3904999.3903819 1.0235001.3903819 1.414 0l3-3c.3789722-.3923789.3735524-1.0160848-.0121814-1.4018186s-1.0094397-.3911536-1.4018186-.0121814l-2.293 2.293-.293-.293c-.3923789-.3789722-1.0160848-.3735524-1.4018186.0121814s-.3911536 1.0094397-.0121814 1.4018186z"/><path id="Shape" d="m6 19h20c.5522847 0 1-.4477153 1-1s-.4477153-1-1-1h-20c-.55228475 0-1 .4477153-1 1s.44771525 1 1 1z"/><path id="Shape" d="m32.293 25.707c.3904999.3903819 1.0235001.3903819 1.414 0l3-3c.3789722-.3923789.3735524-1.0160848-.0121814-1.4018186s-1.0094397-.3911536-1.4018186-.0121814l-2.293 2.293-.293-.293c-.3923789-.3789722-1.0160848-.3735524-1.4018186.0121814s-.3911536 1.0094397-.0121814 1.4018186z"/><path id="Shape" d="m6 25h20c.5522847 0 1-.4477153 1-1s-.4477153-1-1-1h-20c-.55228475 0-1 .4477153-1 1s.44771525 1 1 1z"/><path id="Shape" d="m32.293 31.707c.3904999.3903819 1.0235001.3903819 1.414 0l3-3c.3789722-.3923789.3735524-1.0160848-.0121814-1.4018186s-1.0094397-.3911536-1.4018186-.0121814l-2.293 2.293-.293-.293c-.3923789-.3789722-1.0160848-.3735524-1.4018186.0121814s-.3911536 1.0094397-.0121814 1.4018186z"/><path id="Shape" d="m6 31h20c.5522847 0 1-.4477153 1-1s-.4477153-1-1-1h-20c-.55228475 0-1 .4477153-1 1s.44771525 1 1 1z"/><path id="Shape" d="m36.707 33.293c-.3904999-.3903819-1.0235001-.3903819-1.414 0l-2.293 2.293-.293-.293c-.3923789-.3789722-1.0160848-.3735524-1.4018186.0121814s-.3911536 1.0094397-.0121814 1.4018186l1 1c.3904999.3903819 1.0235001.3903819 1.414 0l3-3c.3903819-.3904999.3903819-1.0235001 0-1.414z"/><path id="Shape" d="m51.181 41.427-6.317 9.023-2.157-2.157c-.3923789-.3789722-1.0160848-.3735524-1.4018186.0121814s-.3911536 1.0094397-.0121814 1.4018186l3 3c.1874927.1875494.4418052.2929434.707.293.0289807.0014957.0580193.0014957.087 0 .2945354-.0258521.5625321-.180719.732-.423l7-10c.2178449-.2921912.259472-.679762.1086459-1.0115504s-.4702176-.5552454-.833604-.5832174c-.3633863-.027972-.7132141.1439713-.9130419.4487678z"/><path id="Shape" d="m27 36c0-.5522847-.4477153-1-1-1h-20c-.55228475 0-1 .4477153-1 1s.44771525 1 1 1h20c.5522847 0 1-.4477153 1-1z"/><path id="Shape" d="m17.9 43.553c-.187968-.3152706-.5279475-.5083906-.895-.5083906s-.707032.19312-.895.5083906l-4 8c-.1596977.3197527-.1366785.7004141.0603866.9985928.1970651.2981786.5382372.4685741.895.447.3567629-.0215741.6749157-.2318401.8346134-.5515928l1.218-2.447h3.764l1.223 2.447c.2468713.4942948.8477051.6948712 1.342.448.4942948-.2468713.6948713-.8477052.448-1.342zm-1.782 4.447.882-1.764.882 1.764z"/><path id="Shape" d="m27 45h-1v-1c0-.5522847-.4477153-1-1-1s-1 .4477153-1 1v1h-1c-.5522847 0-1 .4477153-1 1s.4477153 1 1 1h1v1c0 .5522847.4477153 1 1 1s1-.4477153 1-1v-1h1c.5522847 0 1-.4477153 1-1s-.4477153-1-1-1z"/><path id="Shape" d="m47 34c-1.0107332.0036114-2.0175747.1254392-3 .363v-22.363c-.0000566-.2651948-.1054506-.5195073-.293-.707l-11-11c-.1874927-.18754937-.4418052-.29294336-.707-.293h-29c-1.65685425 0-3 1.34314575-3 3v54c0 1.6568542 1.34314575 3 3 3h38c.6875791-.0036281 1.3530452-.2433371 1.885-.679 4.8853814 1.644049 10.2806857.2463603 13.753353-3.5628956s4.366691-9.3104887 2.278986-14.0233792c-2.0877049-4.7128905-6.762759-7.7471466-11.917339-7.7347252zm-14-30.586 7.586 7.586h-6.586c-.5522847 0-1-.4477153-1-1zm-30 54.586c-.55228475 0-1-.4477153-1-1v-54c0-.55228475.44771525-1 1-1h28v8c0 1.6568542 1.3431458 3 3 3h8v22c-4.4888645 1.8629077-7.5610849 6.077237-7.9612065 10.9208134-.4001215 4.8435764 1.9388911 9.5049206 6.0612065 12.0791866zm44 0c-6.0751322 0-11-4.9248678-11-11s4.9248678-11 11-11 11 4.9248678 11 11c-.0071635 6.0721626-4.9278374 10.9928365-11 11z"/>
</symbol>
<!-- /////////////////////////////////////////// -->
<symbol id="icon-learning-plan" viewBox="0 0 128 128">
<title>test</title>
<path d="m116.681 26.982a1.748 1.748 0 0 0 -1.3-1.22l-10.725-2.423-2.423-10.725a1.749 1.749 0 0 0 -2.944-.851l-12.335 12.337a49.908 49.908 0 1 0 16.946 16.946l12.34-12.34a1.751 1.751 0 0 0 .441-1.724zm-9.106 39.855a46.406 46.406 0 1 1 -23.175-40.179l-5.665 5.665a1.736 1.736 0 0 0 -.135.175 38.564 38.564 0 1 0 16.894 16.917 1.726 1.726 0 0 0 .183-.149l5.665-5.665a46.25 46.25 0 0 1 6.233 23.236zm-16.234-17.714a34.963 34.963 0 1 1 -12.467-12.479l1.843 8.164-1.768 1.768a27.028 27.028 0 1 0 2.475 2.475l1.768-1.768zm-22.653 17.714a7.553 7.553 0 1 1 -3.595-6.405l-5.168 5.168a1.75 1.75 0 1 0 2.475 2.474l5.168-5.168a7.467 7.467 0 0 1 1.12 3.931zm-1.076-8.924a11.07 11.07 0 1 0 2.474 2.475l8.858-8.858a23.511 23.511 0 1 1 -2.474-2.475zm32.844-18.376-6.568 6.567-.985-.222-.038-.009-8.765-1.973-2.209-9.783 17.632-17.635 1.967 8.706a1.751 1.751 0 0 0 1.322 1.322l8.706 1.967z"/>
</symbol>
<!-- /////////////////////////////////////////// -->
<symbol id="icon-study-plan" viewBox="0 0 512.001 512.001">
<title>test</title>
<path d="m422 240h-100c-8.284 0-15 6.716-15 15s6.716 15 15 15h100c8.284 0 15-6.716 15-15s-6.715-15-15-15z"/><path d="m422 180h-40c-8.284 0-15 6.716-15 15s6.716 15 15 15h40c8.284 0 15-6.716 15-15s-6.715-15-15-15z"/><path d="m422 60h-100c-8.284 0-15 6.716-15 15s6.716 15 15 15h100c8.284 0 15-6.716 15-15s-6.715-15-15-15z"/><path d="m497 300v-270c8.284 0 15-6.716 15-15s-6.716-15-15-15h-250c-8.284 0-15 6.716-15 15s6.716 15 15 15v80h-54.604c7.933-11.348 12.604-25.135 12.604-40 0-38.599-31.401-70-70-70s-70 31.401-70 70c0 15.489 5.065 29.812 13.614 41.419-44.601 7.787-78.614 46.785-78.614 93.581v110c0 12.254 4.837 23.708 13.621 32.255 8.478 8.247 19.569 12.745 31.359 12.745.423 0 .85-.006 1.274-.018 4.802-.132 9.42-1.059 13.746-2.635v109.653c0 24.813 20.187 45 45 45 11.517 0 22.032-4.354 30-11.495 7.968 7.141 18.483 11.495 30 11.495 24.813 0 45-20.187 45-45v-267h37v100c-8.284 0-15 6.716-15 15s6.716 15 15 15h110v52.373l-72.393 106.177c-4.667 6.845-2.901 16.177 3.943 20.844 2.586 1.763 5.526 2.607 8.437 2.607 4.793 0 9.504-2.292 12.407-6.551l47.606-69.823v61.373c0 8.284 6.716 15 15 15s15-6.716 15-15v-61.373l47.606 69.823c2.904 4.259 7.613 6.551 12.407 6.551 2.91 0 5.851-.845 8.437-2.607 6.845-4.667 8.61-13.999 3.943-20.844l-72.393-106.177v-52.373h110c8.284 0 15-6.716 15-15s-6.715-15-15-15zm-362-270c22.056 0 40 17.944 40 40s-17.944 40-40 40-40-17.944-40-40 17.945-40 40-40zm60 140c-8.284 0-15 6.716-15 15v282c0 8.271-6.729 15-15 15s-15-6.729-15-15v-150c0-8.284-6.716-15-15-15s-15 6.716-15 15v150c0 8.271-6.729 15-15 15s-15-6.729-15-15v-258.667c0-8.284-6.716-15-15-15s-15 6.716-15 15v106.043c0 8.392-6.535 15.397-14.568 15.618-4.065.127-7.963-1.394-10.89-4.241-2.928-2.85-4.542-6.668-4.542-10.753v-110c0-35.841 29.159-65 65-65h217c8.271 0 15 6.729 15 15s-6.729 15-15 15zm82 130v-100h35c24.813 0 45-20.187 45-45 0-1.691-.102-3.357-.284-5h65.284c8.284 0 15-6.716 15-15s-6.716-15-15-15h-81.759c-7.728-6.248-17.552-10-28.241-10h-35v-80h190v270z"/>
</symbol>
<!-- /////////////////////////////////////////// -->
<symbol id="icon-assignments" viewBox="0 0 512 512">
<title>test</title>
<g><path d="m475.937 471.001-4.056-22.687c-3.542-19.771-17.468-36.309-36.346-43.157l-15.977-5.795v-25.846c.083-.081.171-.156.254-.238 9.668-9.484 15.213-22.642 15.213-36.099v-29.855c0-14.086-5.954-26.8-15.467-35.785v-144.135c0-6.181-2.506-12.223-6.876-16.576l-104.479-104.045c-1.865-1.836-3.984-3.311-6.27-4.414-.12-.067-.766-.37-.85-.404-2.966-1.3-6.111-1.965-9.356-1.965h-220.415c-19.739 0-35.798 16.058-35.798 35.795v393.209c0 4.143 3.358 7.5 7.5 7.5s7.5-3.357 7.5-7.5v-393.209c0-11.467 9.33-20.795 20.798-20.795h219.475v64.382c0 26.976 21.948 48.922 48.927 48.922h24.871c4.142 0 7.5-3.357 7.5-7.5s-3.358-7.5-7.5-7.5h-24.871c-18.707 0-33.927-15.218-33.927-33.922v-53.835l96.31 95.909c1.564 1.559 2.461 3.727 2.461 5.948v134.402c-5.793-2.399-12.137-3.731-18.787-3.731-27.159 0-49.254 22.093-49.254 49.249v30.79c0 13.974 5.968 26.69 15.48 35.703v25.961l-15.206 5.511c-18.623 6.759-32.501 23.039-36.218 42.486l-4.366 22.813c-1.778 9.272.267 18.738 5.601 26.412h-230.496c-11.468 0-20.798-9.328-20.798-20.795v-16.506c0-4.143-3.358-7.5-7.5-7.5s-7.5 3.357-7.5 7.5v16.506c0 19.737 16.059 35.795 35.798 35.795h370.31c10.35 0 20.094-4.551 26.735-12.485 6.64-7.936 9.403-18.328 7.58-28.514zm-124.421-163.677c0-18.885 15.367-34.249 34.254-34.249 16.947 0 31.052 12.373 33.772 28.556-2.282 1.242-4.684 2.379-7.177 3.377-14.184 5.681-26.694 5.34-31.263 2.138-3.391-2.379-8.068-1.558-10.446 1.835-2.378 3.392-1.557 8.068 1.835 10.446 4.762 3.339 11.444 5.003 19.112 5.003 8.054 0 17.195-1.836 26.338-5.496.701-.281 1.393-.579 2.083-.877v19.123c0 9.455-3.906 18.709-10.717 25.39-6.613 6.487-15.223 10.003-24.211 9.79-18.516-.356-33.581-15.719-33.581-34.245v-30.791zm33.292 80.033c.314.006.626.009.94.009 6.54 0 12.904-1.327 18.81-3.846v17.545c-11.165 7.909-26.381 7.921-37.562-.011v-17.461c5.516 2.305 11.522 3.643 17.812 3.764zm72.045 102.531c-3.783 4.52-9.335 7.112-15.232 7.112h-111.176c-5.944 0-11.525-2.628-15.312-7.209-3.784-4.578-5.313-10.548-4.195-16.381l4.367-22.816c2.73-14.283 12.924-26.24 26.6-31.204l16.556-6c8.143 5.726 17.732 8.585 27.322 8.585 9.745 0 19.488-2.957 27.705-8.857l16.932 6.142c13.866 5.03 24.095 17.177 26.696 31.698l4.056 22.686c1.038 5.802-.535 11.723-4.319 16.244z"/><path d="m128.236 138.336c-2.929-2.93-7.678-2.929-10.606-.001l-9.863 9.861-9.863-9.861c-2.929-2.93-7.678-2.929-10.606.001-2.929 2.929-2.928 7.678.001 10.606l9.861 9.859-9.861 9.859c-2.929 2.929-2.93 7.678-.001 10.606 1.464 1.465 3.384 2.197 5.304 2.197 1.919 0 3.838-.732 5.303-2.196l9.863-9.861 9.863 9.861c1.464 1.465 3.383 2.196 5.303 2.196s3.839-.732 5.304-2.197c2.929-2.929 2.928-7.678-.001-10.606l-9.861-9.859 9.861-9.859c2.927-2.928 2.928-7.677-.001-10.606z"/><path d="m128.269 239.474c-2.91-2.948-7.659-2.977-10.606-.067l-16.932 16.721-2.827-2.826c-2.929-2.928-7.678-2.929-10.606.001s-2.928 7.678.001 10.606l8.097 8.095c1.464 1.464 3.383 2.196 5.303 2.196 1.904 0 3.809-.721 5.27-2.163l22.234-21.956c2.947-2.912 2.977-7.66.066-10.607z"/><path d="m157.737 150.77h140.55c4.142 0 7.5-3.357 7.5-7.5s-3.358-7.5-7.5-7.5h-140.55c-4.142 0-7.5 3.357-7.5 7.5s3.358 7.5 7.5 7.5z"/><path d="m157.737 182.091h46.784c4.142 0 7.5-3.357 7.5-7.5s-3.358-7.5-7.5-7.5h-46.784c-4.142 0-7.5 3.357-7.5 7.5s3.358 7.5 7.5 7.5z"/><path d="m128.236 416.542c-2.929-2.93-7.678-2.929-10.606-.001l-9.863 9.861-9.863-9.861c-2.929-2.93-7.678-2.929-10.606.001-2.929 2.929-2.928 7.678.001 10.606l9.861 9.859-9.861 9.859c-2.929 2.929-2.93 7.678-.001 10.606 1.464 1.465 3.384 2.197 5.304 2.197 1.919 0 3.838-.732 5.303-2.196l9.863-9.861 9.863 9.861c1.464 1.465 3.383 2.196 5.303 2.196s3.839-.732 5.304-2.197c2.929-2.929 2.928-7.678-.001-10.606l-9.861-9.859 9.861-9.859c2.927-2.928 2.928-7.677-.001-10.606z"/><path d="m157.737 428.976h117.763c4.142 0 7.5-3.357 7.5-7.5s-3.358-7.5-7.5-7.5h-117.763c-4.142 0-7.5 3.357-7.5 7.5s3.358 7.5 7.5 7.5z"/><path d="m157.737 460.296h46.784c4.142 0 7.5-3.357 7.5-7.5s-3.358-7.5-7.5-7.5h-46.784c-4.142 0-7.5 3.357-7.5 7.5s3.358 7.5 7.5 7.5z"/><path d="m157.737 247.137h186.28c4.142 0 7.5-3.357 7.5-7.5s-3.358-7.5-7.5-7.5h-186.28c-4.142 0-7.5 3.357-7.5 7.5s3.358 7.5 7.5 7.5z"/><path d="m157.737 278.457h96.078c4.142 0 7.5-3.357 7.5-7.5s-3.358-7.5-7.5-7.5h-96.078c-4.142 0-7.5 3.357-7.5 7.5s3.358 7.5 7.5 7.5z"/><path d="m128.269 328.831c-2.91-2.948-7.659-2.977-10.606-.067l-16.931 16.72-2.827-2.826c-2.93-2.928-7.678-2.929-10.607.001-2.929 2.929-2.928 7.678.001 10.606l8.097 8.096c1.464 1.464 3.383 2.196 5.303 2.196 1.904 0 3.809-.721 5.27-2.163l22.234-21.956c2.947-2.912 2.977-7.66.066-10.607z"/><path d="m157.737 336.493h148.578c4.142 0 7.5-3.357 7.5-7.5s-3.358-7.5-7.5-7.5h-148.578c-4.142 0-7.5 3.357-7.5 7.5s3.358 7.5 7.5 7.5z"/><path d="m157.737 367.813h96.078c4.142 0 7.5-3.357 7.5-7.5s-3.358-7.5-7.5-7.5h-96.078c-4.142 0-7.5 3.357-7.5 7.5s3.358 7.5 7.5 7.5z"/><path d="m107.767 43.479c-14.342 0-26.01 11.667-26.01 26.008 0 14.34 11.668 26.007 26.01 26.007s26.01-11.667 26.01-26.007c0-14.341-11.668-26.008-26.01-26.008zm0 37.015c-6.071 0-11.01-4.938-11.01-11.007s4.939-11.008 11.01-11.008 11.01 4.938 11.01 11.008-4.939 11.007-11.01 11.007z"/></g>
</symbol>
<!-- /////////////////////////////////////////// -->
<!-- <symbol id="icon-test" viewBox="0 0 20 20">
<title>test</title>
<path d=""></path>
</symbol> -->
<!-- /////////////////////////////////////////// -->
</defs>
</svg>