<?xml version="1.0" standalone="no"?>
<!DOCTYPE svg PUBLIC "-//W3C//DTD SVG 20010904//EN"
 "http://www.w3.org/TR/2001/REC-SVG-20010904/DTD/svg10.dtd">
<svg version="1.0" xmlns="http://www.w3.org/2000/svg"
 width="512.000000pt" height="512.000000pt" viewBox="0 0 512.000000 512.000000"
 preserveAspectRatio="xMidYMid meet">

<g transform="translate(0.000000,512.000000) scale(0.100000,-0.100000)"
fill="#000000" stroke="none">
<path d="M1403 5100 c-23 -12 -51 -36 -62 -54 -11 -17 -173 -578 -360 -1246
-187 -668 -464 -1660 -616 -2204 -222 -793 -276 -998 -272 -1029 6 -43 29 -80
68 -109 14 -10 373 -116 814 -239 883 -247 842 -239 914 -171 30 28 44 53 59
107 11 39 262 932 556 1986 339 1211 536 1932 536 1960 0 162 -234 213 -303
67 -9 -18 -121 -411 -251 -873 -516 -1845 -795 -2842 -805 -2882 -7 -24 -15
-43 -19 -43 -23 -1 -1202 335 -1202 342 0 5 173 628 385 1386 213 757 465
1661 562 2007 97 347 179 634 183 638 4 5 350 -87 769 -204 l761 -213 0 -2098
c0 -2318 -5 -2140 66 -2194 l37 -29 831 -3 c928 -3 889 -6 944 66 l27 35 3
2215 2 2215 -21 43 c-27 58 -78 88 -145 88 -59 0 -90 -16 -131 -71 l-28 -36
-3 -2114 -2 -2113 -625 0 -625 0 0 2230 0 2229 733 3 732 3 37 23 c42 26 78
92 78 143 0 53 -38 110 -90 137 l-45 22 -836 -2 -836 -3 -37 -29 c-59 -44 -66
-73 -66 -256 0 -88 -3 -160 -7 -160 -4 0 -363 100 -797 221 -435 122 -809 224
-831 226 -28 3 -53 -2 -82 -17z"/>
<path d="M1461 3328 c-60 -31 -83 -66 -89 -131 -5 -64 12 -104 60 -140 35 -26
553 -177 606 -177 46 1 107 35 131 73 45 73 37 148 -22 205 -29 28 -65 41
-297 107 -323 92 -331 93 -389 63z"/>
<path d="M3744 3151 c-62 -28 -89 -73 -89 -146 0 -73 27 -118 89 -146 37 -17
70 -19 332 -19 285 0 292 0 334 23 50 26 90 90 90 141 0 55 -40 118 -90 144
-43 21 -53 22 -335 22 -261 0 -294 -2 -331 -19z"/>
<path d="M1345 2896 c-118 -53 -131 -220 -23 -286 26 -16 477 -148 566 -166
43 -9 114 19 146 57 56 67 52 160 -9 219 -30 29 -63 41 -312 111 -153 43 -291
78 -308 78 -16 0 -43 -6 -60 -13z"/>
<path d="M3730 2688 c-57 -39 -75 -72 -75 -138 0 -66 18 -99 75 -137 32 -23
38 -23 345 -23 307 0 313 0 345 23 57 38 75 71 75 137 0 66 -18 99 -75 138
-32 22 -38 22 -345 22 -307 0 -313 0 -345 -22z"/>
<path d="M1217 2004 c-95 -23 -167 -63 -240 -136 -204 -201 -203 -514 2 -719
102 -101 214 -148 356 -149 278 0 505 226 505 504 0 149 -47 264 -149 366
-129 127 -301 176 -474 134z m214 -343 c112 -70 112 -231 0 -303 -41 -26 -53
-29 -108 -26 -69 4 -103 23 -140 78 -110 160 83 356 248 251z"/>
<path d="M3953 1835 c-257 -70 -426 -322 -383 -573 33 -198 186 -367 375 -417
121 -31 266 -13 370 46 264 149 347 478 185 726 -118 180 -348 271 -547 218z
m203 -335 c63 -31 99 -89 99 -161 0 -48 -5 -65 -30 -100 -43 -61 -86 -81 -161
-77 -74 5 -126 38 -155 102 -71 158 90 312 247 236z"/>
</g>
</svg>
